<svg xmlns="http://www.w3.org/2000/svg" width="140" height="158" viewBox="0 0 140 158">
<rect x="0" y="0" width="140" height="158" fill="#ffffff"/>
<text x="10" y="14" font-size="12" font-weight="700" fill="#263238">CLUSTER_L</text>
<rect x="20" y="20" width="100" height="100" fill="#fafafa" stroke="#b0bec5" stroke-width="1"/>
<line x1="30.00" y1="70.00" x2="36.00" y2="90.00" stroke="#cfd8dc" stroke-width="0.8" />
<line x1="30.00" y1="70.00" x2="36.00" y2="80.00" stroke="#cfd8dc" stroke-width="0.8" />
<line x1="30.00" y1="70.00" x2="36.00" y2="70.00" stroke="#cfd8dc" stroke-width="0.8" />
<line x1="30.00" y1="70.00" x2="36.00" y2="60.00" stroke="#cfd8dc" stroke-width="0.8" />
<line x1="30.00" y1="70.00" x2="36.00" y2="50.00" stroke="#cfd8dc" stroke-width="0.8" />
<line x1="30.00" y1="70.00" x2="42.00" y2="85.00" stroke="#cfd8dc" stroke-width="0.8" />
<line x1="30.00" y1="70.00" x2="42.00" y2="75.00" stroke="#cfd8dc" stroke-width="0.8" />
<line x1="30.00" y1="70.00" x2="42.00" y2="65.00" stroke="#cfd8dc" stroke-width="0.8" />
<line x1="30.00" y1="70.00" x2="42.00" y2="55.00" stroke="#cfd8dc" stroke-width="0.8" />
<line x1="30.00" y1="70.00" x2="48.00" y2="80.00" stroke="#cfd8dc" stroke-width="0.8" />
<line x1="30.00" y1="70.00" x2="48.00" y2="70.00" stroke="#cfd8dc" stroke-width="0.8" />
<line x1="30.00" y1="70.00" x2="48.00" y2="60.00" stroke="#cfd8dc" stroke-width="0.8" />
<line x1="30.00" y1="70.00" x2="50.00" y2="70.00" stroke="#cfd8dc" stroke-width="0.8" />
<line x1="60.00" y1="70.00" x2="70.00" y2="75.00" stroke="#cfd8dc" stroke-width="0.8" />
<line x1="60.00" y1="70.00" x2="70.00" y2="65.00" stroke="#cfd8dc" stroke-width="0.8" />
<line x1="60.00" y1="70.00" x2="42.00" y2="75.00" stroke="#cfd8dc" stroke-width="0.8" />
<line x1="60.00" y1="70.00" x2="42.00" y2="65.00" stroke="#cfd8dc" stroke-width="0.8" />
<line x1="60.00" y1="70.00" x2="48.00" y2="80.00" stroke="#cfd8dc" stroke-width="0.8" />
<line x1="60.00" y1="70.00" x2="48.00" y2="70.00" stroke="#cfd8dc" stroke-width="0.8" />
<line x1="60.00" y1="70.00" x2="48.00" y2="60.00" stroke="#cfd8dc" stroke-width="0.8" />
<line x1="60.00" y1="70.00" x2="54.00" y2="85.00" stroke="#cfd8dc" stroke-width="0.8" />
<line x1="60.00" y1="70.00" x2="54.00" y2="75.00" stroke="#cfd8dc" stroke-width="0.8" />
<line x1="60.00" y1="70.00" x2="54.00" y2="65.00" stroke="#cfd8dc" stroke-width="0.8" />
<line x1="60.00" y1="70.00" x2="54.00" y2="55.00" stroke="#cfd8dc" stroke-width="0.8" />
<line x1="60.00" y1="70.00" x2="50.00" y2="70.00" stroke="#cfd8dc" stroke-width="0.8" />
<line x1="60.00" y1="70.00" x2="55.00" y2="70.00" stroke="#cfd8dc" stroke-width="0.8" />
<line x1="70.00" y1="75.00" x2="70.00" y2="65.00" stroke="#cfd8dc" stroke-width="0.8" />
<line x1="70.00" y1="75.00" x2="54.00" y2="85.00" stroke="#cfd8dc" stroke-width="0.8" />
<line x1="70.00" y1="75.00" x2="54.00" y2="75.00" stroke="#cfd8dc" stroke-width="0.8" />
<line x1="70.00" y1="75.00" x2="54.00" y2="65.00" stroke="#cfd8dc" stroke-width="0.8" />
<line x1="70.00" y1="75.00" x2="50.00" y2="70.00" stroke="#cfd8dc" stroke-width="0.8" />
<line x1="70.00" y1="75.00" x2="55.00" y2="70.00" stroke="#cfd8dc" stroke-width="0.8" />
<line x1="70.00" y1="75.00" x2="86.00" y2="80.00" stroke="#cfd8dc" stroke-width="0.8" />
<line x1="70.00" y1="75.00" x2="86.00" y2="70.00" stroke="#cfd8dc" stroke-width="0.8" />
<line x1="70.00" y1="65.00" x2="54.00" y2="75.00" stroke="#cfd8dc" stroke-width="0.8" />
<line x1="70.00" y1="65.00" x2="54.00" y2="65.00" stroke="#cfd8dc" stroke-width="0.8" />
<line x1="70.00" y1="65.00" x2="54.00" y2="55.00" stroke="#cfd8dc" stroke-width="0.8" />
<line x1="70.00" y1="65.00" x2="50.00" y2="70.00" stroke="#cfd8dc" stroke-width="0.8" />
<line x1="70.00" y1="65.00" x2="55.00" y2="70.00" stroke="#cfd8dc" stroke-width="0.8" />
<line x1="70.00" y1="65.00" x2="86.00" y2="70.00" stroke="#cfd8dc" stroke-width="0.8" />
<line x1="70.00" y1="65.00" x2="86.00" y2="60.00" stroke="#cfd8dc" stroke-width="0.8" />
<line x1="36.00" y1="90.00" x2="36.00" y2="80.00" stroke="#cfd8dc" stroke-width="0.8" />
<line x1="36.00" y1="90.00" x2="36.00" y2="70.00" stroke="#cfd8dc" stroke-width="0.8" />
<line x1="36.00" y1="90.00" x2="42.00" y2="95.00" stroke="#cfd8dc" stroke-width="0.8" />
<line x1="36.00" y1="90.00" x2="42.00" y2="85.00" stroke="#cfd8dc" stroke-width="0.8" />
<line x1="36.00" y1="90.00" x2="42.00" y2="75.00" stroke="#cfd8dc" stroke-width="0.8" />
<line x1="36.00" y1="90.00" x2="48.00" y2="100.00" stroke="#cfd8dc" stroke-width="0.8" />
<line x1="36.00" y1="90.00" x2="48.00" y2="90.00" stroke="#cfd8dc" stroke-width="0.8" />
<line x1="36.00" y1="90.00" x2="48.00" y2="80.00" stroke="#cfd8dc" stroke-width="0.8" />
<line x1="36.00" y1="90.00" x2="54.00" y2="95.00" stroke="#cfd8dc" stroke-width="0.8" />
<line x1="36.00" y1="90.00" x2="54.00" y2="85.00" stroke="#cfd8dc" stroke-width="0.8" />
<line x1="36.00" y1="80.00" x2="36.00" y2="70.00" stroke="#cfd8dc" stroke-width="0.8" />
<line x1="36.00" y1="80.00" x2="36.00" y2="60.00" stroke="#cfd8dc" stroke-width="0.8" />
<line x1="36.00" y1="80.00" x2="42.00" y2="95.00" stroke="#cfd8dc" stroke-width="0.8" />
<line x1="36.00" y1="80.00" x2="42.00" y2="85.00" stroke="#cfd8dc" stroke-width="0.8" />
<line x1="36.00" y1="80.00" x2="42.00" y2="75.00" stroke="#cfd8dc" stroke-width="0.8" />
<line x1="36.00" y1="80.00" x2="42.00" y2="65.00" stroke="#cfd8dc" stroke-width="0.8" />
<line x1="36.00" y1="80.00" x2="48.00" y2="90.00" stroke="#cfd8dc" stroke-width="0.8" />
<line x1="36.00" y1="80.00" x2="48.00" y2="80.00" stroke="#cfd8dc" stroke-width="0.8" />
<line x1="36.00" y1="80.00" x2="48.00" y2="70.00" stroke="#cfd8dc" stroke-width="0.8" />
<line x1="36.00" y1="80.00" x2="54.00" y2="85.00" stroke="#cfd8dc" stroke-width="0.8" />
<line x1="36.00" y1="80.00" x2="54.00" y2="75.00" stroke="#cfd8dc" stroke-width="0.8" />
<line x1="36.00" y1="80.00" x2="50.00" y2="70.00" stroke="#cfd8dc" stroke-width="0.8" />
<line x1="36.00" y1="70.00" x2="36.00" y2="60.00" stroke="#cfd8dc" stroke-width="0.8" />
<line x1="36.00" y1="70.00" x2="36.00" y2="50.00" stroke="#cfd8dc" stroke-width="0.8" />
<line x1="36.00" y1="70.00" x2="42.00" y2="85.00" stroke="#cfd8dc" stroke-width="0.8" />
<line x1="36.00" y1="70.00" x2="42.00" y2="75.00" stroke="#cfd8dc" stroke-width="0.8" />
<line x1="36.00" y1="70.00" x2="42.00" y2="65.00" stroke="#cfd8dc" stroke-width="0.8" />
<line x1="36.00" y1="70.00" x2="42.00" y2="55.00" stroke="#cfd8dc" stroke-width="0.8" />
<line x1="36.00" y1="70.00" x2="48.00" y2="80.00" stroke="#cfd8dc" stroke-width="0.8" />
<line x1="36.00" y1="70.00" x2="48.00" y2="70.00" stroke="#cfd8dc" stroke-width="0.8" />
<line x1="36.00" y1="70.00" x2="48.00" y2="60.00" stroke="#cfd8dc" stroke-width="0.8" />
<line x1="36.00" y1="70.00" x2="54.00" y2="75.00" stroke="#cfd8dc" stroke-width="0.8" />
<line x1="36.00" y1="70.00" x2="54.00" y2="65.00" stroke="#cfd8dc" stroke-width="0.8" />
<line x1="36.00" y1="70.00" x2="50.00" y2="70.00" stroke="#cfd8dc" stroke-width="0.8" />
<line x1="36.00" y1="70.00" x2="55.00" y2="70.00" stroke="#cfd8dc" stroke-width="0.8" />
<line x1="36.00" y1="60.00" x2="36.00" y2="50.00" stroke="#cfd8dc" stroke-width="0.8" />
<line x1="36.00" y1="60.00" x2="42.00" y2="75.00" stroke="#cfd8dc" stroke-width="0.8" />
<line x1="36.00" y1="60.00" x2="42.00" y2="65.00" stroke="#cfd8dc" stroke-width="0.8" />
<line x1="36.00" y1="60.00" x2="42.00" y2="55.00" stroke="#cfd8dc" stroke-width="0.8" />
<line x1="36.00" y1="60.00" x2="42.00" y2="45.00" stroke="#cfd8dc" stroke-width="0.8" />
<line x1="36.00" y1="60.00" x2="48.00" y2="70.00" stroke="#cfd8dc" stroke-width="0.8" />
<line x1="36.00" y1="60.00" x2="48.00" y2="60.00" stroke="#cfd8dc" stroke-width="0.8" />
<line x1="36.00" y1="60.00" x2="48.00" y2="50.00" stroke="#cfd8dc" stroke-width="0.8" />
<line x1="36.00" y1="60.00" x2="54.00" y2="65.00" stroke="#cfd8dc" stroke-width="0.8" />
<line x1="36.00" y1="60.00" x2="54.00" y2="55.00" stroke="#cfd8dc" stroke-width="0.8" />
<line x1="36.00" y1="60.00" x2="50.00" y2="70.00" stroke="#cfd8dc" stroke-width="0.8" />
<line x1="36.00" y1="50.00" x2="42.00" y2="65.00" stroke="#cfd8dc" stroke-width="0.8" />
<line x1="36.00" y1="50.00" x2="42.00" y2="55.00" stroke="#cfd8dc" stroke-width="0.8" />
<line x1="36.00" y1="50.00" x2="42.00" y2="45.00" stroke="#cfd8dc" stroke-width="0.8" />
<line x1="36.00" y1="50.00" x2="48.00" y2="60.00" stroke="#cfd8dc" stroke-width="0.8" />
<line x1="36.00" y1="50.00" x2="48.00" y2="50.00" stroke="#cfd8dc" stroke-width="0.8" />
<line x1="36.00" y1="50.00" x2="48.00" y2="40.00" stroke="#cfd8dc" stroke-width="0.8" />
<line x1="36.00" y1="50.00" x2="54.00" y2="55.00" stroke="#cfd8dc" stroke-width="0.8" />
<line x1="36.00" y1="50.00" x2="54.00" y2="45.00" stroke="#cfd8dc" stroke-width="0.8" />
<line x1="42.00" y1="95.00" x2="42.00" y2="85.00" stroke="#cfd8dc" stroke-width="0.8" />
<line x1="42.00" y1="95.00" x2="42.00" y2="75.00" stroke="#cfd8dc" stroke-width="0.8" />
<line x1="42.00" y1="95.00" x2="48.00" y2="100.00" stroke="#cfd8dc" stroke-width="0.8" />
<line x1="42.00" y1="95.00" x2="48.00" y2="90.00" stroke="#cfd8dc" stroke-width="0.8" />
<line x1="42.00" y1="95.00" x2="48.00" y2="80.00" stroke="#cfd8dc" stroke-width="0.8" />
<line x1="42.00" y1="95.00" x2="54.00" y2="95.00" stroke="#cfd8dc" stroke-width="0.8" />
<line x1="42.00" y1="95.00" x2="54.00" y2="85.00" stroke="#cfd8dc" stroke-width="0.8" />
<line x1="42.00" y1="85.00" x2="42.00" y2="75.00" stroke="#cfd8dc" stroke-width="0.8" />
<line x1="42.00" y1="85.00" x2="42.00" y2="65.00" stroke="#cfd8dc" stroke-width="0.8" />
<line x1="42.00" y1="85.00" x2="48.00" y2="100.00" stroke="#cfd8dc" stroke-width="0.8" />
<line x1="42.00" y1="85.00" x2="48.00" y2="90.00" stroke="#cfd8dc" stroke-width="0.8" />
<line x1="42.00" y1="85.00" x2="48.00" y2="80.00" stroke="#cfd8dc" stroke-width="0.8" />
<line x1="42.00" y1="85.00" x2="48.00" y2="70.00" stroke="#cfd8dc" stroke-width="0.8" />
<line x1="42.00" y1="85.00" x2="54.00" y2="95.00" stroke="#cfd8dc" stroke-width="0.8" />
<line x1="42.00" y1="85.00" x2="54.00" y2="85.00" stroke="#cfd8dc" stroke-width="0.8" />
<line x1="42.00" y1="85.00" x2="54.00" y2="75.00" stroke="#cfd8dc" stroke-width="0.8" />
<line x1="42.00" y1="85.00" x2="50.00" y2="70.00" stroke="#cfd8dc" stroke-width="0.8" />
<line x1="42.00" y1="85.00" x2="55.00" y2="70.00" stroke="#cfd8dc" stroke-width="0.8" />
<line x1="42.00" y1="75.00" x2="42.00" y2="65.00" stroke="#cfd8dc" stroke-width="0.8" />
<line x1="42.00" y1="75.00" x2="42.00" y2="55.00" stroke="#cfd8dc" stroke-width="0.8" />
<line x1="42.00" y1="75.00" x2="48.00" y2="90.00" stroke="#cfd8dc" stroke-width="0.8" />
<line x1="42.00" y1="75.00" x2="48.00" y2="80.00" stroke="#cfd8dc" stroke-width="0.8" />
<line x1="42.00" y1="75.00" x2="48.00" y2="70.00" stroke="#cfd8dc" stroke-width="0.8" />
<line x1="42.00" y1="75.00" x2="48.00" y2="60.00" stroke="#cfd8dc" stroke-width="0.8" />
<line x1="42.00" y1="75.00" x2="54.00" y2="85.00" stroke="#cfd8dc" stroke-width="0.8" />
<line x1="42.00" y1="75.00" x2="54.00" y2="75.00" stroke="#cfd8dc" stroke-width="0.8" />
<line x1="42.00" y1="75.00" x2="54.00" y2="65.00" stroke="#cfd8dc" stroke-width="0.8" />
<line x1="42.00" y1="75.00" x2="50.00" y2="70.00" stroke="#cfd8dc" stroke-width="0.8" />
<line x1="42.00" y1="75.00" x2="55.00" y2="70.00" stroke="#cfd8dc" stroke-width="0.8" />
<line x1="42.00" y1="65.00" x2="42.00" y2="55.00" stroke="#cfd8dc" stroke-width="0.8" />
<line x1="42.00" y1="65.00" x2="42.00" y2="45.00" stroke="#cfd8dc" stroke-width="0.8" />
<line x1="42.00" y1="65.00" x2="48.00" y2="80.00" stroke="#cfd8dc" stroke-width="0.8" />
<line x1="42.00" y1="65.00" x2="48.00" y2="70.00" stroke="#cfd8dc" stroke-width="0.8" />
<line x1="42.00" y1="65.00" x2="48.00" y2="60.00" stroke="#cfd8dc" stroke-width="0.8" />
<line x1="42.00" y1="65.00" x2="48.00" y2="50.00" stroke="#cfd8dc" stroke-width="0.8" />
<line x1="42.00" y1="65.00" x2="54.00" y2="75.00" stroke="#cfd8dc" stroke-width="0.8" />
<line x1="42.00" y1="65.00" x2="54.00" y2="65.00" stroke="#cfd8dc" stroke-width="0.8" />
<line x1="42.00" y1="65.00" x2="54.00" y2="55.00" stroke="#cfd8dc" stroke-width="0.8" />
<line x1="42.00" y1="65.00" x2="50.00" y2="70.00" stroke="#cfd8dc" stroke-width="0.8" />
<line x1="42.00" y1="65.00" x2="55.00" y2="70.00" stroke="#cfd8dc" stroke-width="0.8" />
<line x1="42.00" y1="55.00" x2="42.00" y2="45.00" stroke="#cfd8dc" stroke-width="0.8" />
<line x1="42.00" y1="55.00" x2="48.00" y2="70.00" stroke="#cfd8dc" stroke-width="0.8" />
<line x1="42.00" y1="55.00" x2="48.00" y2="60.00" stroke="#cfd8dc" stroke-width="0.8" />
<line x1="42.00" y1="55.00" x2="48.00" y2="50.00" stroke="#cfd8dc" stroke-width="0.8" />
<line x1="42.00" y1="55.00" x2="48.00" y2="40.00" stroke="#cfd8dc" stroke-width="0.8" />
<line x1="42.00" y1="55.00" x2="54.00" y2="65.00" stroke="#cfd8dc" stroke-width="0.8" />
<line x1="42.00" y1="55.00" x2="54.00" y2="55.00" stroke="#cfd8dc" stroke-width="0.8" />
<line x1="42.00" y1="55.00" x2="54.00" y2="45.00" stroke="#cfd8dc" stroke-width="0.8" />
<line x1="42.00" y1="55.00" x2="50.00" y2="70.00" stroke="#cfd8dc" stroke-width="0.8" />
<line x1="42.00" y1="55.00" x2="55.00" y2="70.00" stroke="#cfd8dc" stroke-width="0.8" />
<line x1="42.00" y1="45.00" x2="48.00" y2="60.00" stroke="#cfd8dc" stroke-width="0.8" />
<line x1="42.00" y1="45.00" x2="48.00" y2="50.00" stroke="#cfd8dc" stroke-width="0.8" />
<line x1="42.00" y1="45.00" x2="48.00" y2="40.00" stroke="#cfd8dc" stroke-width="0.8" />
<line x1="42.00" y1="45.00" x2="54.00" y2="55.00" stroke="#cfd8dc" stroke-width="0.8" />
<line x1="42.00" y1="45.00" x2="54.00" y2="45.00" stroke="#cfd8dc" stroke-width="0.8" />
<line x1="48.00" y1="100.00" x2="48.00" y2="90.00" stroke="#cfd8dc" stroke-width="0.8" />
<line x1="48.00" y1="100.00" x2="48.00" y2="80.00" stroke="#cfd8dc" stroke-width="0.8" />
<line x1="48.00" y1="100.00" x2="54.00" y2="95.00" stroke="#cfd8dc" stroke-width="0.8" />
<line x1="48.00" y1="100.00" x2="54.00" y2="85.00" stroke="#cfd8dc" stroke-width="0.8" />
<line x1="48.00" y1="90.00" x2="48.00" y2="80.00" stroke="#cfd8dc" stroke-width="0.8" />
<line x1="48.00" y1="90.00" x2="48.00" y2="70.00" stroke="#cfd8dc" stroke-width="0.8" />
<line x1="48.00" y1="90.00" x2="54.00" y2="95.00" stroke="#cfd8dc" stroke-width="0.8" />
<line x1="48.00" y1="90.00" x2="54.00" y2="85.00" stroke="#cfd8dc" stroke-width="0.8" />
<line x1="48.00" y1="90.00" x2="54.00" y2="75.00" stroke="#cfd8dc" stroke-width="0.8" />
<line x1="48.00" y1="90.00" x2="50.00" y2="70.00" stroke="#cfd8dc" stroke-width="0.8" />
<line x1="48.00" y1="80.00" x2="48.00" y2="70.00" stroke="#cfd8dc" stroke-width="0.8" />
<line x1="48.00" y1="80.00" x2="48.00" y2="60.00" stroke="#cfd8dc" stroke-width="0.8" />
<line x1="48.00" y1="80.00" x2="54.00" y2="95.00" stroke="#cfd8dc" stroke-width="0.8" />
<line x1="48.00" y1="80.00" x2="54.00" y2="85.00" stroke="#cfd8dc" stroke-width="0.8" />
<line x1="48.00" y1="80.00" x2="54.00" y2="75.00" stroke="#cfd8dc" stroke-width="0.8" />
<line x1="48.00" y1="80.00" x2="54.00" y2="65.00" stroke="#cfd8dc" stroke-width="0.8" />
<line x1="48.00" y1="80.00" x2="50.00" y2="70.00" stroke="#cfd8dc" stroke-width="0.8" />
<line x1="48.00" y1="80.00" x2="55.00" y2="70.00" stroke="#cfd8dc" stroke-width="0.8" />
<line x1="48.00" y1="70.00" x2="48.00" y2="60.00" stroke="#cfd8dc" stroke-width="0.8" />
<line x1="48.00" y1="70.00" x2="48.00" y2="50.00" stroke="#cfd8dc" stroke-width="0.8" />
<line x1="48.00" y1="70.00" x2="54.00" y2="85.00" stroke="#cfd8dc" stroke-width="0.8" />
<line x1="48.00" y1="70.00" x2="54.00" y2="75.00" stroke="#cfd8dc" stroke-width="0.8" />
<line x1="48.00" y1="70.00" x2="54.00" y2="65.00" stroke="#cfd8dc" stroke-width="0.8" />
<line x1="48.00" y1="70.00" x2="54.00" y2="55.00" stroke="#cfd8dc" stroke-width="0.8" />
<line x1="48.00" y1="70.00" x2="50.00" y2="70.00" stroke="#cfd8dc" stroke-width="0.8" />
<line x1="48.00" y1="70.00" x2="55.00" y2="70.00" stroke="#cfd8dc" stroke-width="0.8" />
<line x1="48.00" y1="60.00" x2="48.00" y2="50.00" stroke="#cfd8dc" stroke-width="0.8" />
<line x1="48.00" y1="60.00" x2="48.00" y2="40.00" stroke="#cfd8dc" stroke-width="0.8" />
<line x1="48.00" y1="60.00" x2="54.00" y2="75.00" stroke="#cfd8dc" stroke-width="0.8" />
<line x1="48.00" y1="60.00" x2="54.00" y2="65.00" stroke="#cfd8dc" stroke-width="0.8" />
<line x1="48.00" y1="60.00" x2="54.00" y2="55.00" stroke="#cfd8dc" stroke-width="0.8" />
<line x1="48.00" y1="60.00" x2="54.00" y2="45.00" stroke="#cfd8dc" stroke-width="0.8" />
<line x1="48.00" y1="60.00" x2="50.00" y2="70.00" stroke="#cfd8dc" stroke-width="0.8" />
<line x1="48.00" y1="60.00" x2="55.00" y2="70.00" stroke="#cfd8dc" stroke-width="0.8" />
<line x1="48.00" y1="50.00" x2="48.00" y2="40.00" stroke="#cfd8dc" stroke-width="0.8" />
<line x1="48.00" y1="50.00" x2="54.00" y2="65.00" stroke="#cfd8dc" stroke-width="0.8" />
<line x1="48.00" y1="50.00" x2="54.00" y2="55.00" stroke="#cfd8dc" stroke-width="0.8" />
<line x1="48.00" y1="50.00" x2="54.00" y2="45.00" stroke="#cfd8dc" stroke-width="0.8" />
<line x1="48.00" y1="50.00" x2="50.00" y2="70.00" stroke="#cfd8dc" stroke-width="0.8" />
<line x1="48.00" y1="40.00" x2="54.00" y2="55.00" stroke="#cfd8dc" stroke-width="0.8" />
<line x1="48.00" y1="40.00" x2="54.00" y2="45.00" stroke="#cfd8dc" stroke-width="0.8" />
<line x1="54.00" y1="95.00" x2="54.00" y2="85.00" stroke="#cfd8dc" stroke-width="0.8" />
<line x1="54.00" y1="95.00" x2="54.00" y2="75.00" stroke="#cfd8dc" stroke-width="0.8" />
<line x1="54.00" y1="85.00" x2="54.00" y2="75.00" stroke="#cfd8dc" stroke-width="0.8" />
<line x1="54.00" y1="85.00" x2="54.00" y2="65.00" stroke="#cfd8dc" stroke-width="0.8" />
<line x1="54.00" y1="85.00" x2="50.00" y2="70.00" stroke="#cfd8dc" stroke-width="0.8" />
<line x1="54.00" y1="85.00" x2="55.00" y2="70.00" stroke="#cfd8dc" stroke-width="0.8" />
<line x1="54.00" y1="75.00" x2="54.00" y2="65.00" stroke="#cfd8dc" stroke-width="0.8" />
<line x1="54.00" y1="75.00" x2="54.00" y2="55.00" stroke="#cfd8dc" stroke-width="0.8" />
<line x1="54.00" y1="75.00" x2="50.00" y2="70.00" stroke="#cfd8dc" stroke-width="0.8" />
<line x1="54.00" y1="75.00" x2="55.00" y2="70.00" stroke="#cfd8dc" stroke-width="0.8" />
<line x1="54.00" y1="65.00" x2="54.00" y2="55.00" stroke="#cfd8dc" stroke-width="0.8" />
<line x1="54.00" y1="65.00" x2="54.00" y2="45.00" stroke="#cfd8dc" stroke-width="0.8" />
<line x1="54.00" y1="65.00" x2="50.00" y2="70.00" stroke="#cfd8dc" stroke-width="0.8" />
<line x1="54.00" y1="65.00" x2="55.00" y2="70.00" stroke="#cfd8dc" stroke-width="0.8" />
<line x1="54.00" y1="55.00" x2="54.00" y2="45.00" stroke="#cfd8dc" stroke-width="0.8" />
<line x1="54.00" y1="55.00" x2="50.00" y2="70.00" stroke="#cfd8dc" stroke-width="0.8" />
<line x1="54.00" y1="55.00" x2="55.00" y2="70.00" stroke="#cfd8dc" stroke-width="0.8" />
<line x1="50.00" y1="70.00" x2="55.00" y2="70.00" stroke="#cfd8dc" stroke-width="0.8" />
<line x1="86.00" y1="100.00" x2="86.00" y2="90.00" stroke="#cfd8dc" stroke-width="0.8" />
<line x1="86.00" y1="100.00" x2="86.00" y2="80.00" stroke="#cfd8dc" stroke-width="0.8" />
<line x1="86.00" y1="100.00" x2="94.00" y2="100.00" stroke="#cfd8dc" stroke-width="0.8" />
<line x1="86.00" y1="100.00" x2="94.00" y2="90.00" stroke="#cfd8dc" stroke-width="0.8" />
<line x1="86.00" y1="100.00" x2="102.00" y2="100.00" stroke="#cfd8dc" stroke-width="0.8" />
<line x1="86.00" y1="100.00" x2="102.00" y2="90.00" stroke="#cfd8dc" stroke-width="0.8" />
<line x1="86.00" y1="90.00" x2="86.00" y2="80.00" stroke="#cfd8dc" stroke-width="0.8" />
<line x1="86.00" y1="90.00" x2="86.00" y2="70.00" stroke="#cfd8dc" stroke-width="0.8" />
<line x1="86.00" y1="90.00" x2="94.00" y2="100.00" stroke="#cfd8dc" stroke-width="0.8" />
<line x1="86.00" y1="90.00" x2="94.00" y2="90.00" stroke="#cfd8dc" stroke-width="0.8" />
<line x1="86.00" y1="90.00" x2="94.00" y2="80.00" stroke="#cfd8dc" stroke-width="0.8" />
<line x1="86.00" y1="90.00" x2="102.00" y2="100.00" stroke="#cfd8dc" stroke-width="0.8" />
<line x1="86.00" y1="90.00" x2="102.00" y2="90.00" stroke="#cfd8dc" stroke-width="0.8" />
<line x1="86.00" y1="90.00" x2="102.00" y2="80.00" stroke="#cfd8dc" stroke-width="0.8" />
<line x1="86.00" y1="80.00" x2="86.00" y2="70.00" stroke="#cfd8dc" stroke-width="0.8" />
<line x1="86.00" y1="80.00" x2="86.00" y2="60.00" stroke="#cfd8dc" stroke-width="0.8" />
<line x1="86.00" y1="80.00" x2="94.00" y2="90.00" stroke="#cfd8dc" stroke-width="0.8" />
<line x1="86.00" y1="80.00" x2="94.00" y2="80.00" stroke="#cfd8dc" stroke-width="0.8" />
<line x1="86.00" y1="80.00" x2="94.00" y2="70.00" stroke="#cfd8dc" stroke-width="0.8" />
<line x1="86.00" y1="80.00" x2="102.00" y2="90.00" stroke="#cfd8dc" stroke-width="0.8" />
<line x1="86.00" y1="80.00" x2="102.00" y2="80.00" stroke="#cfd8dc" stroke-width="0.8" />
<line x1="86.00" y1="80.00" x2="102.00" y2="70.00" stroke="#cfd8dc" stroke-width="0.8" />
<line x1="86.00" y1="80.00" x2="105.00" y2="80.00" stroke="#cfd8dc" stroke-width="0.8" />
<line x1="86.00" y1="70.00" x2="86.00" y2="60.00" stroke="#cfd8dc" stroke-width="0.8" />
<line x1="86.00" y1="70.00" x2="86.00" y2="50.00" stroke="#cfd8dc" stroke-width="0.8" />
<line x1="86.00" y1="70.00" x2="94.00" y2="80.00" stroke="#cfd8dc" stroke-width="0.8" />
<line x1="86.00" y1="70.00" x2="94.00" y2="70.00" stroke="#cfd8dc" stroke-width="0.8" />
<line x1="86.00" y1="70.00" x2="94.00" y2="60.00" stroke="#cfd8dc" stroke-width="0.8" />
<line x1="86.00" y1="70.00" x2="102.00" y2="80.00" stroke="#cfd8dc" stroke-width="0.8" />
<line x1="86.00" y1="70.00" x2="102.00" y2="70.00" stroke="#cfd8dc" stroke-width="0.8" />
<line x1="86.00" y1="70.00" x2="102.00" y2="60.00" stroke="#cfd8dc" stroke-width="0.8" />
<line x1="86.00" y1="70.00" x2="105.00" y2="70.00" stroke="#cfd8dc" stroke-width="0.8" />
<line x1="86.00" y1="60.00" x2="86.00" y2="50.00" stroke="#cfd8dc" stroke-width="0.8" />
<line x1="86.00" y1="60.00" x2="86.00" y2="40.00" stroke="#cfd8dc" stroke-width="0.8" />
<line x1="86.00" y1="60.00" x2="94.00" y2="70.00" stroke="#cfd8dc" stroke-width="0.8" />
<line x1="86.00" y1="60.00" x2="94.00" y2="60.00" stroke="#cfd8dc" stroke-width="0.8" />
<line x1="86.00" y1="60.00" x2="94.00" y2="50.00" stroke="#cfd8dc" stroke-width="0.8" />
<line x1="86.00" y1="60.00" x2="102.00" y2="70.00" stroke="#cfd8dc" stroke-width="0.8" />
<line x1="86.00" y1="60.00" x2="102.00" y2="60.00" stroke="#cfd8dc" stroke-width="0.8" />
<line x1="86.00" y1="60.00" x2="102.00" y2="50.00" stroke="#cfd8dc" stroke-width="0.8" />
<line x1="86.00" y1="60.00" x2="105.00" y2="60.00" stroke="#cfd8dc" stroke-width="0.8" />
<line x1="86.00" y1="50.00" x2="86.00" y2="40.00" stroke="#cfd8dc" stroke-width="0.8" />
<line x1="86.00" y1="50.00" x2="94.00" y2="60.00" stroke="#cfd8dc" stroke-width="0.8" />
<line x1="86.00" y1="50.00" x2="94.00" y2="50.00" stroke="#cfd8dc" stroke-width="0.8" />
<line x1="86.00" y1="50.00" x2="94.00" y2="40.00" stroke="#cfd8dc" stroke-width="0.8" />
<line x1="86.00" y1="50.00" x2="102.00" y2="60.00" stroke="#cfd8dc" stroke-width="0.8" />
<line x1="86.00" y1="50.00" x2="102.00" y2="50.00" stroke="#cfd8dc" stroke-width="0.8" />
<line x1="86.00" y1="50.00" x2="102.00" y2="40.00" stroke="#cfd8dc" stroke-width="0.8" />
<line x1="86.00" y1="40.00" x2="94.00" y2="50.00" stroke="#cfd8dc" stroke-width="0.8" />
<line x1="86.00" y1="40.00" x2="94.00" y2="40.00" stroke="#cfd8dc" stroke-width="0.8" />
<line x1="86.00" y1="40.00" x2="102.00" y2="50.00" stroke="#cfd8dc" stroke-width="0.8" />
<line x1="86.00" y1="40.00" x2="102.00" y2="40.00" stroke="#cfd8dc" stroke-width="0.8" />
<line x1="94.00" y1="100.00" x2="94.00" y2="90.00" stroke="#cfd8dc" stroke-width="0.8" />
<line x1="94.00" y1="100.00" x2="94.00" y2="80.00" stroke="#cfd8dc" stroke-width="0.8" />
<line x1="94.00" y1="100.00" x2="102.00" y2="100.00" stroke="#cfd8dc" stroke-width="0.8" />
<line x1="94.00" y1="100.00" x2="102.00" y2="90.00" stroke="#cfd8dc" stroke-width="0.8" />
<line x1="94.00" y1="100.00" x2="110.00" y2="95.00" stroke="#cfd8dc" stroke-width="0.8" />
<line x1="94.00" y1="90.00" x2="94.00" y2="80.00" stroke="#cfd8dc" stroke-width="0.8" />
<line x1="94.00" y1="90.00" x2="94.00" y2="70.00" stroke="#cfd8dc" stroke-width="0.8" />
<line x1="94.00" y1="90.00" x2="102.00" y2="100.00" stroke="#cfd8dc" stroke-width="0.8" />
<line x1="94.00" y1="90.00" x2="102.00" y2="90.00" stroke="#cfd8dc" stroke-width="0.8" />
<line x1="94.00" y1="90.00" x2="102.00" y2="80.00" stroke="#cfd8dc" stroke-width="0.8" />
<line x1="94.00" y1="90.00" x2="110.00" y2="95.00" stroke="#cfd8dc" stroke-width="0.8" />
<line x1="94.00" y1="90.00" x2="110.00" y2="85.00" stroke="#cfd8dc" stroke-width="0.8" />
<line x1="94.00" y1="90.00" x2="105.00" y2="80.00" stroke="#cfd8dc" stroke-width="0.8" />
<line x1="94.00" y1="80.00" x2="94.00" y2="70.00" stroke="#cfd8dc" stroke-width="0.8" />
<line x1="94.00" y1="80.00" x2="94.00" y2="60.00" stroke="#cfd8dc" stroke-width="0.8" />
<line x1="94.00" y1="80.00" x2="102.00" y2="90.00" stroke="#cfd8dc" stroke-width="0.8" />
<line x1="94.00" y1="80.00" x2="102.00" y2="80.00" stroke="#cfd8dc" stroke-width="0.8" />
<line x1="94.00" y1="80.00" x2="102.00" y2="70.00" stroke="#cfd8dc" stroke-width="0.8" />
<line x1="94.00" y1="80.00" x2="110.00" y2="85.00" stroke="#cfd8dc" stroke-width="0.8" />
<line x1="94.00" y1="80.00" x2="110.00" y2="70.00" stroke="#cfd8dc" stroke-width="0.8" />
<line x1="94.00" y1="80.00" x2="105.00" y2="80.00" stroke="#cfd8dc" stroke-width="0.8" />
<line x1="94.00" y1="80.00" x2="108.00" y2="70.00" stroke="#cfd8dc" stroke-width="0.8" />
<line x1="94.00" y1="80.00" x2="105.00" y2="70.00" stroke="#cfd8dc" stroke-width="0.8" />
<line x1="94.00" y1="70.00" x2="94.00" y2="60.00" stroke="#cfd8dc" stroke-width="0.8" />
<line x1="94.00" y1="70.00" x2="94.00" y2="50.00" stroke="#cfd8dc" stroke-width="0.8" />
<line x1="94.00" y1="70.00" x2="102.00" y2="80.00" stroke="#cfd8dc" stroke-width="0.8" />
<line x1="94.00" y1="70.00" x2="102.00" y2="70.00" stroke="#cfd8dc" stroke-width="0.8" />
<line x1="94.00" y1="70.00" x2="102.00" y2="60.00" stroke="#cfd8dc" stroke-width="0.8" />
<line x1="94.00" y1="70.00" x2="110.00" y2="70.00" stroke="#cfd8dc" stroke-width="0.8" />
<line x1="94.00" y1="70.00" x2="105.00" y2="80.00" stroke="#cfd8dc" stroke-width="0.8" />
<line x1="94.00" y1="70.00" x2="105.00" y2="60.00" stroke="#cfd8dc" stroke-width="0.8" />
<line x1="94.00" y1="70.00" x2="108.00" y2="70.00" stroke="#cfd8dc" stroke-width="0.8" />
<line x1="94.00" y1="70.00" x2="105.00" y2="70.00" stroke="#cfd8dc" stroke-width="0.8" />
<line x1="94.00" y1="60.00" x2="94.00" y2="50.00" stroke="#cfd8dc" stroke-width="0.8" />
<line x1="94.00" y1="60.00" x2="94.00" y2="40.00" stroke="#cfd8dc" stroke-width="0.8" />
<line x1="94.00" y1="60.00" x2="102.00" y2="70.00" stroke="#cfd8dc" stroke-width="0.8" />
<line x1="94.00" y1="60.00" x2="102.00" y2="60.00" stroke="#cfd8dc" stroke-width="0.8" />
<line x1="94.00" y1="60.00" x2="102.00" y2="50.00" stroke="#cfd8dc" stroke-width="0.8" />
<line x1="94.00" y1="60.00" x2="110.00" y2="70.00" stroke="#cfd8dc" stroke-width="0.8" />
<line x1="94.00" y1="60.00" x2="110.00" y2="55.00" stroke="#cfd8dc" stroke-width="0.8" />
<line x1="94.00" y1="60.00" x2="105.00" y2="60.00" stroke="#cfd8dc" stroke-width="0.8" />
<line x1="94.00" y1="60.00" x2="108.00" y2="70.00" stroke="#cfd8dc" stroke-width="0.8" />
<line x1="94.00" y1="60.00" x2="105.00" y2="70.00" stroke="#cfd8dc" stroke-width="0.8" />
<line x1="94.00" y1="50.00" x2="94.00" y2="40.00" stroke="#cfd8dc" stroke-width="0.8" />
<line x1="94.00" y1="50.00" x2="102.00" y2="60.00" stroke="#cfd8dc" stroke-width="0.8" />
<line x1="94.00" y1="50.00" x2="102.00" y2="50.00" stroke="#cfd8dc" stroke-width="0.8" />
<line x1="94.00" y1="50.00" x2="102.00" y2="40.00" stroke="#cfd8dc" stroke-width="0.8" />
<line x1="94.00" y1="50.00" x2="110.00" y2="55.00" stroke="#cfd8dc" stroke-width="0.8" />
<line x1="94.00" y1="50.00" x2="110.00" y2="45.00" stroke="#cfd8dc" stroke-width="0.8" />
<line x1="94.00" y1="50.00" x2="105.00" y2="60.00" stroke="#cfd8dc" stroke-width="0.8" />
<line x1="94.00" y1="40.00" x2="102.00" y2="50.00" stroke="#cfd8dc" stroke-width="0.8" />
<line x1="94.00" y1="40.00" x2="102.00" y2="40.00" stroke="#cfd8dc" stroke-width="0.8" />
<line x1="94.00" y1="40.00" x2="110.00" y2="45.00" stroke="#cfd8dc" stroke-width="0.8" />
<line x1="102.00" y1="100.00" x2="102.00" y2="90.00" stroke="#cfd8dc" stroke-width="0.8" />
<line x1="102.00" y1="100.00" x2="102.00" y2="80.00" stroke="#cfd8dc" stroke-width="0.8" />
<line x1="102.00" y1="100.00" x2="110.00" y2="95.00" stroke="#cfd8dc" stroke-width="0.8" />
<line x1="102.00" y1="100.00" x2="110.00" y2="85.00" stroke="#cfd8dc" stroke-width="0.8" />
<line x1="102.00" y1="100.00" x2="105.00" y2="80.00" stroke="#cfd8dc" stroke-width="0.8" />
<line x1="102.00" y1="90.00" x2="102.00" y2="80.00" stroke="#cfd8dc" stroke-width="0.8" />
<line x1="102.00" y1="90.00" x2="102.00" y2="70.00" stroke="#cfd8dc" stroke-width="0.8" />
<line x1="102.00" y1="90.00" x2="110.00" y2="95.00" stroke="#cfd8dc" stroke-width="0.8" />
<line x1="102.00" y1="90.00" x2="110.00" y2="85.00" stroke="#cfd8dc" stroke-width="0.8" />
<line x1="102.00" y1="90.00" x2="105.00" y2="80.00" stroke="#cfd8dc" stroke-width="0.8" />
<line x1="102.00" y1="90.00" x2="108.00" y2="70.00" stroke="#cfd8dc" stroke-width="0.8" />
<line x1="102.00" y1="90.00" x2="105.00" y2="70.00" stroke="#cfd8dc" stroke-width="0.8" />
<line x1="102.00" y1="80.00" x2="102.00" y2="70.00" stroke="#cfd8dc" stroke-width="0.8" />
<line x1="102.00" y1="80.00" x2="102.00" y2="60.00" stroke="#cfd8dc" stroke-width="0.8" />
<line x1="102.00" y1="80.00" x2="110.00" y2="95.00" stroke="#cfd8dc" stroke-width="0.8" />
<line x1="102.00" y1="80.00" x2="110.00" y2="85.00" stroke="#cfd8dc" stroke-width="0.8" />
<line x1="102.00" y1="80.00" x2="110.00" y2="70.00" stroke="#cfd8dc" stroke-width="0.8" />
<line x1="102.00" y1="80.00" x2="105.00" y2="80.00" stroke="#cfd8dc" stroke-width="0.8" />
<line x1="102.00" y1="80.00" x2="105.00" y2="60.00" stroke="#cfd8dc" stroke-width="0.8" />
<line x1="102.00" y1="80.00" x2="108.00" y2="70.00" stroke="#cfd8dc" stroke-width="0.8" />
<line x1="102.00" y1="80.00" x2="105.00" y2="70.00" stroke="#cfd8dc" stroke-width="0.8" />
<line x1="102.00" y1="70.00" x2="102.00" y2="60.00" stroke="#cfd8dc" stroke-width="0.8" />
<line x1="102.00" y1="70.00" x2="102.00" y2="50.00" stroke="#cfd8dc" stroke-width="0.8" />
<line x1="102.00" y1="70.00" x2="110.00" y2="85.00" stroke="#cfd8dc" stroke-width="0.8" />
<line x1="102.00" y1="70.00" x2="110.00" y2="70.00" stroke="#cfd8dc" stroke-width="0.8" />
<line x1="102.00" y1="70.00" x2="110.00" y2="55.00" stroke="#cfd8dc" stroke-width="0.8" />
<line x1="102.00" y1="70.00" x2="105.00" y2="80.00" stroke="#cfd8dc" stroke-width="0.8" />
<line x1="102.00" y1="70.00" x2="105.00" y2="60.00" stroke="#cfd8dc" stroke-width="0.8" />
<line x1="102.00" y1="70.00" x2="108.00" y2="70.00" stroke="#cfd8dc" stroke-width="0.8" />
<line x1="102.00" y1="70.00" x2="105.00" y2="70.00" stroke="#cfd8dc" stroke-width="0.8" />
<line x1="102.00" y1="60.00" x2="102.00" y2="50.00" stroke="#cfd8dc" stroke-width="0.8" />
<line x1="102.00" y1="60.00" x2="102.00" y2="40.00" stroke="#cfd8dc" stroke-width="0.8" />
<line x1="102.00" y1="60.00" x2="110.00" y2="70.00" stroke="#cfd8dc" stroke-width="0.8" />
<line x1="102.00" y1="60.00" x2="110.00" y2="55.00" stroke="#cfd8dc" stroke-width="0.8" />
<line x1="102.00" y1="60.00" x2="110.00" y2="45.00" stroke="#cfd8dc" stroke-width="0.8" />
<line x1="102.00" y1="60.00" x2="105.00" y2="80.00" stroke="#cfd8dc" stroke-width="0.8" />
<line x1="102.00" y1="60.00" x2="105.00" y2="60.00" stroke="#cfd8dc" stroke-width="0.8" />
<line x1="102.00" y1="60.00" x2="108.00" y2="70.00" stroke="#cfd8dc" stroke-width="0.8" />
<line x1="102.00" y1="60.00" x2="105.00" y2="70.00" stroke="#cfd8dc" stroke-width="0.8" />
<line x1="102.00" y1="50.00" x2="102.00" y2="40.00" stroke="#cfd8dc" stroke-width="0.8" />
<line x1="102.00" y1="50.00" x2="110.00" y2="55.00" stroke="#cfd8dc" stroke-width="0.8" />
<line x1="102.00" y1="50.00" x2="110.00" y2="45.00" stroke="#cfd8dc" stroke-width="0.8" />
<line x1="102.00" y1="50.00" x2="105.00" y2="60.00" stroke="#cfd8dc" stroke-width="0.8" />
<line x1="102.00" y1="50.00" x2="108.00" y2="70.00" stroke="#cfd8dc" stroke-width="0.8" />
<line x1="102.00" y1="50.00" x2="105.00" y2="70.00" stroke="#cfd8dc" stroke-width="0.8" />
<line x1="102.00" y1="40.00" x2="110.00" y2="55.00" stroke="#cfd8dc" stroke-width="0.8" />
<line x1="102.00" y1="40.00" x2="110.00" y2="45.00" stroke="#cfd8dc" stroke-width="0.8" />
<line x1="102.00" y1="40.00" x2="105.00" y2="60.00" stroke="#cfd8dc" stroke-width="0.8" />
<line x1="110.00" y1="95.00" x2="110.00" y2="85.00" stroke="#cfd8dc" stroke-width="0.8" />
<line x1="110.00" y1="95.00" x2="105.00" y2="80.00" stroke="#cfd8dc" stroke-width="0.8" />
<line x1="110.00" y1="85.00" x2="110.00" y2="70.00" stroke="#cfd8dc" stroke-width="0.8" />
<line x1="110.00" y1="85.00" x2="105.00" y2="80.00" stroke="#cfd8dc" stroke-width="0.8" />
<line x1="110.00" y1="85.00" x2="108.00" y2="70.00" stroke="#cfd8dc" stroke-width="0.8" />
<line x1="110.00" y1="85.00" x2="105.00" y2="70.00" stroke="#cfd8dc" stroke-width="0.8" />
<line x1="110.00" y1="70.00" x2="110.00" y2="55.00" stroke="#cfd8dc" stroke-width="0.8" />
<line x1="110.00" y1="70.00" x2="105.00" y2="80.00" stroke="#cfd8dc" stroke-width="0.8" />
<line x1="110.00" y1="70.00" x2="105.00" y2="60.00" stroke="#cfd8dc" stroke-width="0.8" />
<line x1="110.00" y1="70.00" x2="108.00" y2="70.00" stroke="#cfd8dc" stroke-width="0.8" />
<line x1="110.00" y1="70.00" x2="105.00" y2="70.00" stroke="#cfd8dc" stroke-width="0.8" />
<line x1="110.00" y1="55.00" x2="110.00" y2="45.00" stroke="#cfd8dc" stroke-width="0.8" />
<line x1="110.00" y1="55.00" x2="105.00" y2="60.00" stroke="#cfd8dc" stroke-width="0.8" />
<line x1="110.00" y1="55.00" x2="108.00" y2="70.00" stroke="#cfd8dc" stroke-width="0.8" />
<line x1="110.00" y1="55.00" x2="105.00" y2="70.00" stroke="#cfd8dc" stroke-width="0.8" />
<line x1="110.00" y1="45.00" x2="105.00" y2="60.00" stroke="#cfd8dc" stroke-width="0.8" />
<line x1="105.00" y1="80.00" x2="105.00" y2="60.00" stroke="#cfd8dc" stroke-width="0.8" />
<line x1="105.00" y1="80.00" x2="108.00" y2="70.00" stroke="#cfd8dc" stroke-width="0.8" />
<line x1="105.00" y1="80.00" x2="105.00" y2="70.00" stroke="#cfd8dc" stroke-width="0.8" />
<line x1="105.00" y1="60.00" x2="108.00" y2="70.00" stroke="#cfd8dc" stroke-width="0.8" />
<line x1="105.00" y1="60.00" x2="105.00" y2="70.00" stroke="#cfd8dc" stroke-width="0.8" />
<line x1="108.00" y1="70.00" x2="105.00" y2="70.00" stroke="#cfd8dc" stroke-width="0.8" />
<circle cx="30.00" cy="70.00" r="6" fill="#e74c3c" stroke="#b03a2e" stroke-width="1.0" />
<circle cx="60.00" cy="70.00" r="6" fill="#f39c12" stroke="#9c640c" stroke-width="1.0" />
<circle cx="70.00" cy="75.00" r="5" fill="#9b59b6" stroke="#6c3483" stroke-width="1.0" />
<circle cx="70.00" cy="65.00" r="5" fill="#9b59b6" stroke="#6c3483" stroke-width="1.0" />
<circle cx="36.00" cy="90.00" r="4" fill="#3498db" stroke="#21618c" stroke-width="1.0" />
<circle cx="36.00" cy="80.00" r="4" fill="#3498db" stroke="#21618c" stroke-width="1.0" />
<circle cx="36.00" cy="70.00" r="4" fill="#3498db" stroke="#21618c" stroke-width="1.0" />
<circle cx="36.00" cy="60.00" r="4" fill="#3498db" stroke="#21618c" stroke-width="1.0" />
<circle cx="36.00" cy="50.00" r="4" fill="#3498db" stroke="#21618c" stroke-width="1.0" />
<circle cx="42.00" cy="95.00" r="4" fill="#3498db" stroke="#21618c" stroke-width="1.0" />
<circle cx="42.00" cy="85.00" r="4" fill="#3498db" stroke="#21618c" stroke-width="1.0" />
<circle cx="42.00" cy="75.00" r="4" fill="#3498db" stroke="#21618c" stroke-width="1.0" />
<circle cx="42.00" cy="65.00" r="4" fill="#3498db" stroke="#21618c" stroke-width="1.0" />
<circle cx="42.00" cy="55.00" r="4" fill="#3498db" stroke="#21618c" stroke-width="1.0" />
<circle cx="42.00" cy="45.00" r="4" fill="#3498db" stroke="#21618c" stroke-width="1.0" />
<circle cx="48.00" cy="100.00" r="4" fill="#3498db" stroke="#21618c" stroke-width="1.0" />
<circle cx="48.00" cy="90.00" r="4" fill="#3498db" stroke="#21618c" stroke-width="1.0" />
<circle cx="48.00" cy="80.00" r="4" fill="#3498db" stroke="#21618c" stroke-width="1.0" />
<circle cx="48.00" cy="70.00" r="4" fill="#3498db" stroke="#21618c" stroke-width="1.0" />
<circle cx="48.00" cy="60.00" r="4" fill="#3498db" stroke="#21618c" stroke-width="1.0" />
<circle cx="48.00" cy="50.00" r="4" fill="#3498db" stroke="#21618c" stroke-width="1.0" />
<circle cx="48.00" cy="40.00" r="4" fill="#3498db" stroke="#21618c" stroke-width="1.0" />
<circle cx="54.00" cy="95.00" r="4" fill="#3498db" stroke="#21618c" stroke-width="1.0" />
<circle cx="54.00" cy="85.00" r="4" fill="#3498db" stroke="#21618c" stroke-width="1.0" />
<circle cx="54.00" cy="75.00" r="4" fill="#3498db" stroke="#21618c" stroke-width="1.0" />
<circle cx="54.00" cy="65.00" r="4" fill="#3498db" stroke="#21618c" stroke-width="1.0" />
<circle cx="54.00" cy="55.00" r="4" fill="#3498db" stroke="#21618c" stroke-width="1.0" />
<circle cx="54.00" cy="45.00" r="4" fill="#3498db" stroke="#21618c" stroke-width="1.0" />
<circle cx="50.00" cy="70.00" r="4" fill="#3498db" stroke="#21618c" stroke-width="1.0" />
<circle cx="55.00" cy="70.00" r="4" fill="#3498db" stroke="#21618c" stroke-width="1.0" />
<circle cx="86.00" cy="100.00" r="4" fill="#3498db" stroke="#21618c" stroke-width="1.0" />
<circle cx="86.00" cy="90.00" r="4" fill="#3498db" stroke="#21618c" stroke-width="1.0" />
<circle cx="86.00" cy="80.00" r="4" fill="#3498db" stroke="#21618c" stroke-width="1.0" />
<circle cx="86.00" cy="70.00" r="4" fill="#3498db" stroke="#21618c" stroke-width="1.0" />
<circle cx="86.00" cy="60.00" r="4" fill="#3498db" stroke="#21618c" stroke-width="1.0" />
<circle cx="86.00" cy="50.00" r="4" fill="#3498db" stroke="#21618c" stroke-width="1.0" />
<circle cx="86.00" cy="40.00" r="4" fill="#3498db" stroke="#21618c" stroke-width="1.0" />
<circle cx="94.00" cy="100.00" r="4" fill="#3498db" stroke="#21618c" stroke-width="1.0" />
<circle cx="94.00" cy="90.00" r="4" fill="#3498db" stroke="#21618c" stroke-width="1.0" />
<circle cx="94.00" cy="80.00" r="4" fill="#3498db" stroke="#21618c" stroke-width="1.0" />
<circle cx="94.00" cy="70.00" r="4" fill="#3498db" stroke="#21618c" stroke-width="1.0" />
<circle cx="94.00" cy="60.00" r="4" fill="#3498db" stroke="#21618c" stroke-width="1.0" />
<circle cx="94.00" cy="50.00" r="4" fill="#3498db" stroke="#21618c" stroke-width="1.0" />
<circle cx="94.00" cy="40.00" r="4" fill="#3498db" stroke="#21618c" stroke-width="1.0" />
<circle cx="102.00" cy="100.00" r="4" fill="#3498db" stroke="#21618c" stroke-width="1.0" />
<circle cx="102.00" cy="90.00" r="4" fill="#3498db" stroke="#21618c" stroke-width="1.0" />
<circle cx="102.00" cy="80.00" r="4" fill="#3498db" stroke="#21618c" stroke-width="1.0" />
<circle cx="102.00" cy="70.00" r="4" fill="#3498db" stroke="#21618c" stroke-width="1.0" />
<circle cx="102.00" cy="60.00" r="4" fill="#3498db" stroke="#21618c" stroke-width="1.0" />
<circle cx="102.00" cy="50.00" r="4" fill="#3498db" stroke="#21618c" stroke-width="1.0" />
<circle cx="102.00" cy="40.00" r="4" fill="#3498db" stroke="#21618c" stroke-width="1.0" />
<circle cx="110.00" cy="95.00" r="4" fill="#3498db" stroke="#21618c" stroke-width="1.0" />
<circle cx="110.00" cy="85.00" r="4" fill="#3498db" stroke="#21618c" stroke-width="1.0" />
<circle cx="110.00" cy="70.00" r="4" fill="#3498db" stroke="#21618c" stroke-width="1.0" />
<circle cx="110.00" cy="55.00" r="4" fill="#3498db" stroke="#21618c" stroke-width="1.0" />
<circle cx="110.00" cy="45.00" r="4" fill="#3498db" stroke="#21618c" stroke-width="1.0" />
<circle cx="105.00" cy="80.00" r="4" fill="#3498db" stroke="#21618c" stroke-width="1.0" />
<circle cx="105.00" cy="60.00" r="4" fill="#3498db" stroke="#21618c" stroke-width="1.0" />
<circle cx="108.00" cy="70.00" r="4" fill="#3498db" stroke="#21618c" stroke-width="1.0" />
<circle cx="105.00" cy="70.00" r="4" fill="#3498db" stroke="#21618c" stroke-width="1.0" />
<text x="35.00" y="65.00" font-size="7" fill="#263238">N1</text>
<text x="65.00" y="65.00" font-size="7" fill="#263238">N2</text>
<text x="75.00" y="70.00" font-size="7" fill="#263238">N3</text>
<text x="75.00" y="60.00" font-size="7" fill="#263238">N4</text>
<text x="41.00" y="85.00" font-size="7" fill="#263238">N5</text>
<text x="41.00" y="75.00" font-size="7" fill="#263238">N6</text>
<text x="41.00" y="65.00" font-size="7" fill="#263238">N7</text>
<text x="41.00" y="55.00" font-size="7" fill="#263238">N8</text>
<text x="41.00" y="45.00" font-size="7" fill="#263238">N9</text>
<text x="47.00" y="90.00" font-size="7" fill="#263238">N10</text>
<text x="47.00" y="80.00" font-size="7" fill="#263238">N11</text>
<text x="47.00" y="70.00" font-size="7" fill="#263238">N12</text>
<g transform="translate(10,124)"><circle cx="8" cy="8" r="4" fill="#e74c3c"/><text x="16" y="10" font-size="8">root</text><circle cx="50" cy="8" r="4" fill="#f39c12"/><text x="58" y="10" font-size="8">attacker</text><circle cx="106" cy="8" r="4" fill="#9b59b6"/><text x="114" y="10" font-size="8">relay</text><circle cx="150" cy="8" r="4" fill="#3498db"/><text x="158" y="10" font-size="8">sender</text></g>
</svg>
